<svg xmlns="http://www.w3.org/2000/svg" viewBox="0 0 120 120" width="120" height="120">
  <defs>
    <linearGradient id="bg" x1="0%" y1="0%" x2="100%" y2="100%">
      <stop offset="0%" style="stop-color:#1a1125"/>
      <stop offset="100%" style="stop-color:#121118"/>
    </linearGradient>
  </defs>
  <!-- Background -->
  <rect width="120" height="120" rx="26" fill="url(#bg)"/>
  <!-- Main pad (big bean) -->
  <ellipse cx="60" cy="72" rx="22" ry="18" fill="white"/>
  <!-- Toe beans -->
  <ellipse cx="38" cy="48" rx="10" ry="11" fill="white" transform="rotate(-15 38 48)"/>
  <ellipse cx="60" cy="42" rx="9" ry="11" fill="white"/>
  <ellipse cx="82" cy="48" rx="10" ry="11" fill="white" transform="rotate(15 82 48)"/>
  <!-- Pink inner pads -->
  <ellipse cx="60" cy="74" rx="14" ry="11" fill="#FF79AC" opacity="0.85"/>
  <ellipse cx="40" cy="49" rx="6" ry="7" fill="#FF79AC" opacity="0.75" transform="rotate(-15 40 49)"/>
  <ellipse cx="60" cy="44" rx="5.5" ry="7" fill="#FF79AC" opacity="0.75"/>
  <ellipse cx="80" cy="49" rx="6" ry="7" fill="#FF79AC" opacity="0.75" transform="rotate(15 80 49)"/>
  <!-- Tiny boot on the right toe -->
  <path d="M88 52 L88 58 L95 58 C97 58, 98 56, 98 54 L98 52 C98 50, 96 49, 94 49 L90 49 C89 49, 88 50, 88 52 Z" fill="#FF79AC" stroke="white" stroke-width="1.5"/>
  <rect x="87" y="56" width="12" height="2.5" rx="1" fill="#D4457A"/>
  <!-- Sparkle -->
  <g transform="translate(96, 38)" fill="#FFD700" opacity="0.7">
    <path d="M0,-4 L1.2,-1.2 L4,0 L1.2,1.2 L0,4 L-1.2,1.2 L-4,0 L-1.2,-1.2 Z" transform="scale(0.7)"/>
  </g>
</svg>
